<?xml version="1.0" encoding="utf-8"?>
<!-- Generator: Adobe Illustrator 22.0.0, SVG Export Plug-In . SVG Version: 6.00 Build 0)  -->
<svg version="1.1" id="Layer_1" xmlns="http://www.w3.org/2000/svg" xmlns:xlink="http://www.w3.org/1999/xlink" x="0px" y="0px"
	 viewBox="0 0 800 92" style="enable-background:new 0 0 800 92;" xml:space="preserve">
<style type="text/css">
	.st0{fill:#FFFFFF;}
</style>
<g>
	<g>
		<path class="st0" d="M147.7,78.7c-2.1,0-4-0.4-5.8-1.2c-1.8-0.8-3.4-1.9-4.8-3.2c-1.4-1.4-2.5-3-3.2-4.8c-0.8-1.8-1.2-3.8-1.2-5.8
			v-10h-4.2v-8.5h4.2V31.7h8.5v13.5h13v8.5h-13v10c0,0.9,0.2,1.7,0.5,2.5c0.3,0.8,0.8,1.5,1.4,2.1c0.6,0.6,1.3,1.1,2.1,1.4
			c0.8,0.3,1.6,0.5,2.5,0.5h6.5v8.5H147.7z"/>
		<path class="st0" d="M191.6,61.6c0,2.5-0.5,4.9-1.4,7c-0.9,2.2-2.1,4-3.7,5.6c-1.6,1.6-3.4,2.8-5.5,3.7c-2.1,0.9-4.3,1.4-6.7,1.4
			c-2.4,0-4.6-0.5-6.7-1.4c-2.1-0.9-3.9-2.2-5.5-3.7c-1.6-1.6-2.8-3.5-3.7-5.6c-0.9-2.2-1.4-4.5-1.4-7c0-2.6,0.5-4.9,1.4-7.1
			c0.9-2.2,2.1-4.1,3.7-5.6c1.6-1.6,3.4-2.8,5.5-3.7c2.1-0.9,4.3-1.4,6.7-1.4c2.4,0,4.6,0.4,6.7,1.3c2.1,0.8,3.9,2.1,5.5,3.6
			c1.6,1.6,2.8,3.4,3.7,5.6C191.1,56.5,191.6,58.9,191.6,61.6z M182.9,61.6c0-1.4-0.2-2.6-0.7-3.8c-0.5-1.1-1.1-2.1-1.8-2.9
			c-0.8-0.8-1.7-1.4-2.7-1.9c-1-0.4-2.1-0.6-3.3-0.6s-2.3,0.2-3.3,0.6c-1,0.4-1.9,1-2.7,1.9c-0.8,0.8-1.4,1.8-1.8,2.9
			c-0.4,1.1-0.7,2.4-0.7,3.8c0,1.3,0.2,2.5,0.7,3.6c0.4,1.1,1,2.1,1.8,2.9c0.8,0.8,1.7,1.5,2.7,1.9c1,0.5,2.1,0.7,3.3,0.7
			s2.3-0.2,3.3-0.7c1-0.4,1.9-1.1,2.7-1.9c0.8-0.8,1.4-1.8,1.8-2.9C182.7,64.2,182.9,62.9,182.9,61.6z"/>
		<path class="st0" d="M221,74.8c-0.7,0.6-1.4,1.2-2.2,1.8c-0.8,0.6-1.6,1-2.5,1.4c-0.9,0.4-1.7,0.7-2.7,1c-0.9,0.2-1.8,0.4-2.8,0.4
			c-2.1,0-4-0.4-5.8-1.1c-1.8-0.7-3.4-1.8-4.8-3.1c-1.4-1.4-2.5-3-3.2-4.9c-0.8-1.9-1.2-4.1-1.2-6.5V45.1h8.5v18.6
			c0,1.1,0.2,2.1,0.5,3c0.3,0.9,0.8,1.6,1.4,2.2c0.6,0.6,1.3,1.1,2.1,1.4c0.8,0.3,1.6,0.5,2.5,0.5c0.9,0,1.7-0.2,2.5-0.6
			s1.5-0.9,2.1-1.6c0.6-0.7,1-1.4,1.4-2.3c0.3-0.8,0.5-1.7,0.5-2.6V45.1h8.6v33.7h-2.1L221,74.8z"/>
		<path class="st0" d="M241.1,78.7h-8.6V45.1h2.1l2.8,4c1.4-1.3,3-2.2,4.7-2.9c1.8-0.7,3.6-1,5.5-1h7.6v8.5h-7.6
			c-0.9,0-1.7,0.2-2.5,0.5c-0.8,0.3-1.5,0.8-2.1,1.4c-0.6,0.6-1,1.3-1.4,2.1c-0.3,0.8-0.5,1.6-0.5,2.5V78.7z"/>
		<path class="st0" d="M291,78.7h-2.1l-3.3-4.6c-0.8,0.7-1.7,1.4-2.6,2.1c-0.9,0.6-1.9,1.2-2.9,1.7c-1,0.5-2,0.8-3.1,1.1
			c-1.1,0.3-2.1,0.4-3.2,0.4c-2.4,0-4.6-0.4-6.7-1.3c-2.1-0.9-3.9-2.1-5.5-3.7c-1.6-1.6-2.8-3.5-3.7-5.6c-0.9-2.2-1.4-4.5-1.4-7.1
			c0-2.5,0.5-4.9,1.4-7.1c0.9-2.2,2.1-4.1,3.7-5.7c1.6-1.6,3.4-2.8,5.5-3.7c2.1-0.9,4.3-1.4,6.7-1.4c0.8,0,1.5,0.1,2.3,0.2
			c0.8,0.1,1.6,0.3,2.4,0.6c0.8,0.3,1.5,0.7,2.2,1.1c0.7,0.5,1.2,1,1.7,1.7V31.7h8.6V78.7z M282.4,61.6c0-1.2-0.2-2.3-0.7-3.4
			c-0.5-1.1-1.1-2.1-1.8-2.9c-0.8-0.8-1.7-1.5-2.7-2c-1-0.5-2.1-0.8-3.3-0.8s-2.3,0.2-3.3,0.6c-1,0.4-1.9,1-2.7,1.8
			c-0.8,0.8-1.4,1.7-1.8,2.9c-0.4,1.1-0.7,2.4-0.7,3.8c0,1.2,0.2,2.4,0.7,3.5c0.4,1.1,1,2.1,1.8,2.9c0.8,0.8,1.7,1.5,2.7,2
			c1,0.5,2.1,0.7,3.3,0.7s2.3-0.3,3.3-0.8c1-0.5,1.9-1.2,2.7-2c0.8-0.8,1.4-1.8,1.8-2.9C282.2,63.9,282.4,62.8,282.4,61.6z"/>
		<path class="st0" d="M322.3,74.8c-0.7,0.6-1.4,1.2-2.2,1.8c-0.8,0.6-1.6,1-2.5,1.4c-0.9,0.4-1.7,0.7-2.7,1
			c-0.9,0.2-1.8,0.4-2.8,0.4c-2.1,0-4-0.4-5.8-1.1c-1.8-0.7-3.4-1.8-4.8-3.1c-1.4-1.4-2.5-3-3.2-4.9c-0.8-1.9-1.2-4.1-1.2-6.5V45.1
			h8.5v18.6c0,1.1,0.2,2.1,0.5,3c0.3,0.9,0.8,1.6,1.4,2.2c0.6,0.6,1.3,1.1,2.1,1.4c0.8,0.3,1.6,0.5,2.5,0.5c0.9,0,1.7-0.2,2.5-0.6
			c0.8-0.4,1.5-0.9,2.1-1.6c0.6-0.7,1-1.4,1.4-2.3c0.3-0.8,0.5-1.7,0.5-2.6V45.1h8.6v33.7h-2.1L322.3,74.8z"/>
		<path class="st0" d="M342.4,78.7h-8.6v-47h8.6V78.7z"/>
		<path class="st0" d="M359,35.9c0,0.8-0.2,1.5-0.5,2.2c-0.3,0.7-0.7,1.3-1.2,1.8c-0.5,0.5-1.1,0.9-1.8,1.2
			c-0.7,0.3-1.5,0.5-2.2,0.5c-0.8,0-1.5-0.2-2.2-0.5c-0.7-0.3-1.3-0.7-1.8-1.2c-0.5-0.5-0.9-1.1-1.2-1.8c-0.3-0.7-0.5-1.4-0.5-2.2
			c0-0.8,0.2-1.5,0.5-2.2c0.3-0.7,0.7-1.3,1.2-1.8c0.5-0.5,1.1-0.9,1.8-1.2c0.7-0.3,1.5-0.5,2.2-0.5c0.8,0,1.5,0.2,2.2,0.5
			c0.7,0.3,1.3,0.7,1.8,1.2c0.5,0.5,0.9,1.1,1.2,1.8C358.9,34.4,359,35.1,359,35.9z M357.6,78.7h-8.6V45.1h8.6V78.7z"/>
		<path class="st0" d="M393.5,51.7l-6.3,6.3c-0.3-0.9-0.7-1.7-1.3-2.4c-0.5-0.7-1.2-1.3-1.8-1.8c-0.7-0.5-1.4-0.8-2.2-1.1
			c-0.8-0.3-1.6-0.4-2.5-0.4c-1.2,0-2.3,0.2-3.3,0.7s-1.9,1.2-2.7,2c-0.8,0.9-1.4,1.9-1.8,3.1c-0.4,1.2-0.7,2.5-0.7,4
			c0,1.2,0.2,2.3,0.7,3.3c0.4,1,1,1.9,1.8,2.7c0.8,0.8,1.7,1.4,2.7,1.8c1,0.4,2.1,0.7,3.3,0.7c0.8,0,1.6-0.1,2.4-0.3
			c0.8-0.2,1.5-0.6,2.2-1c0.7-0.4,1.3-1,1.8-1.6c0.5-0.6,1-1.3,1.3-2.1l6.3,6.3c-0.8,1.1-1.7,2.1-2.7,3c-1,0.9-2.2,1.7-3.4,2.3
			s-2.5,1.1-3.8,1.4c-1.3,0.3-2.7,0.5-4.1,0.5c-2.4,0-4.6-0.4-6.7-1.3c-2.1-0.9-3.9-2.1-5.5-3.7c-1.6-1.6-2.8-3.4-3.7-5.4
			c-0.9-2.1-1.4-4.3-1.4-6.7c0-2.6,0.5-5,1.4-7.2c0.9-2.2,2.1-4.2,3.7-5.9c1.6-1.7,3.4-3,5.5-3.9c2.1-1,4.3-1.4,6.7-1.4
			c1.4,0,2.8,0.2,4.1,0.5c1.4,0.4,2.6,0.9,3.9,1.6c1.2,0.7,2.4,1.5,3.4,2.5C391.9,49.3,392.8,50.5,393.5,51.7z"/>
		<path class="st0" d="M406.3,78.7h-8.6v-47h8.6v14.9c1-0.8,2.1-1.3,3.2-1.6c1.1-0.3,2.2-0.5,3.3-0.5c2.1,0,4,0.4,5.8,1.2
			c1.8,0.8,3.4,1.9,4.8,3.2c1.4,1.4,2.4,3,3.2,4.8c0.8,1.8,1.2,3.8,1.2,5.9v19.2h-8.6V59.5h0.1c0-0.9-0.2-1.7-0.5-2.5
			c-0.3-0.8-0.8-1.5-1.4-2.1c-0.6-0.6-1.3-1-2-1.4c-0.8-0.3-1.6-0.5-2.5-0.5c-0.9,0-1.7,0.2-2.5,0.5c-0.8,0.3-1.5,0.8-2.1,1.4
			c-0.6,0.6-1,1.3-1.4,2.1c-0.3,0.8-0.5,1.6-0.5,2.5V78.7z"/>
	</g>
</g>
<g>
	<g>
		<path class="st0" d="M443,78.7h-8.6V45.1h2.1l2.8,3.3c1.4-1.3,2.9-2.2,4.7-2.9c1.7-0.7,3.6-1,5.5-1c2.1,0,4,0.4,5.8,1.2
			c1.8,0.8,3.4,1.9,4.8,3.2c1.4,1.4,2.4,3,3.2,4.8c0.8,1.8,1.2,3.8,1.2,5.9v19.2h-8.6V59.5c0-0.9-0.2-1.7-0.5-2.5
			c-0.3-0.8-0.8-1.5-1.4-2.1c-0.6-0.6-1.3-1-2-1.4c-0.8-0.3-1.6-0.5-2.5-0.5c-0.9,0-1.7,0.2-2.5,0.5c-0.8,0.3-1.5,0.8-2.1,1.4
			c-0.6,0.6-1,1.3-1.4,2.1c-0.3,0.8-0.5,1.6-0.5,2.5V78.7z"/>
		<path class="st0" d="M479.2,78.7h-8.6v-47h8.6v14.9c1-0.8,2.1-1.3,3.2-1.6c1.1-0.3,2.2-0.5,3.3-0.5c2.1,0,4,0.4,5.8,1.2
			c1.8,0.8,3.4,1.9,4.8,3.2c1.4,1.4,2.4,3,3.2,4.8c0.8,1.8,1.2,3.8,1.2,5.9v19.2H492V59.5h0.1c0-0.9-0.2-1.7-0.5-2.5
			c-0.3-0.8-0.8-1.5-1.4-2.1c-0.6-0.6-1.3-1-2-1.4c-0.8-0.3-1.6-0.5-2.5-0.5c-0.9,0-1.7,0.2-2.5,0.5c-0.8,0.3-1.5,0.8-2.1,1.4
			c-0.6,0.6-1,1.3-1.4,2.1c-0.3,0.8-0.5,1.6-0.5,2.5V78.7z"/>
		<path class="st0" d="M539.3,78.7h-2.1l-3.3-4.6c-0.8,0.7-1.7,1.4-2.6,2.1c-0.9,0.6-1.9,1.2-2.9,1.7c-1,0.5-2,0.8-3.1,1.1
			c-1.1,0.3-2.1,0.4-3.2,0.4c-2.4,0-4.6-0.4-6.7-1.2c-2.1-0.8-3.9-2-5.5-3.5c-1.6-1.5-2.8-3.4-3.7-5.6c-0.9-2.2-1.4-4.7-1.4-7.5
			c0-2.6,0.5-5,1.4-7.2c0.9-2.2,2.1-4.1,3.7-5.6c1.6-1.6,3.4-2.8,5.5-3.7c2.1-0.9,4.3-1.3,6.7-1.3c1.1,0,2.2,0.1,3.2,0.4
			c1.1,0.3,2.1,0.7,3.1,1.1c1,0.5,2,1,2.9,1.7c0.9,0.6,1.8,1.4,2.6,2.1l3.3-4h2.1V78.7z M530.7,61.6c0-1.2-0.2-2.3-0.7-3.4
			c-0.5-1.1-1.1-2.1-1.8-2.9c-0.8-0.8-1.7-1.5-2.7-2s-2.1-0.8-3.3-0.8c-1.2,0-2.3,0.2-3.3,0.6c-1,0.4-1.9,1-2.7,1.8
			c-0.8,0.8-1.4,1.7-1.8,2.9s-0.7,2.4-0.7,3.9c0,1.5,0.2,2.8,0.7,3.9s1,2.1,1.8,2.9c0.8,0.8,1.7,1.4,2.7,1.8c1,0.4,2.1,0.6,3.3,0.6
			c1.2,0,2.3-0.3,3.3-0.8s1.9-1.2,2.7-2c0.8-0.8,1.4-1.8,1.8-2.9C530.5,63.9,530.7,62.8,530.7,61.6z"/>
		<path class="st0" d="M562.8,78.7c-2.1,0-4-0.4-5.8-1.2c-1.8-0.8-3.4-1.9-4.8-3.2c-1.4-1.4-2.5-3-3.2-4.8c-0.8-1.8-1.2-3.8-1.2-5.8
			v-10h-4.2v-8.5h4.2V31.7h8.5v13.5h13v8.5h-13v10c0,0.9,0.2,1.7,0.5,2.5c0.3,0.8,0.8,1.5,1.4,2.1c0.6,0.6,1.3,1.1,2.1,1.4
			c0.8,0.3,1.6,0.5,2.5,0.5h6.5v8.5H562.8z"/>
		<path class="st0" d="M582.7,78.7h-8.6V45.1h2.1l2.8,4c1.4-1.3,3-2.2,4.7-2.9c1.8-0.7,3.6-1,5.5-1h7.6v8.5h-7.6
			c-0.9,0-1.7,0.2-2.5,0.5c-0.8,0.3-1.5,0.8-2.1,1.4c-0.6,0.6-1,1.3-1.4,2.1c-0.3,0.8-0.5,1.6-0.5,2.5V78.7z"/>
		<path class="st0" d="M632.7,78.7h-2.1l-3.3-4.6c-0.8,0.7-1.7,1.4-2.6,2.1c-0.9,0.6-1.9,1.2-2.9,1.7c-1,0.5-2,0.8-3.1,1.1
			c-1.1,0.3-2.1,0.4-3.2,0.4c-2.4,0-4.6-0.4-6.7-1.2c-2.1-0.8-3.9-2-5.5-3.5c-1.6-1.5-2.8-3.4-3.7-5.6c-0.9-2.2-1.4-4.7-1.4-7.5
			c0-2.6,0.5-5,1.4-7.2c0.9-2.2,2.1-4.1,3.7-5.6c1.6-1.6,3.4-2.8,5.5-3.7c2.1-0.9,4.3-1.3,6.7-1.3c1.1,0,2.2,0.1,3.2,0.4
			c1.1,0.3,2.1,0.7,3.1,1.1c1,0.5,2,1,2.9,1.7c0.9,0.6,1.8,1.4,2.6,2.1l3.3-4h2.1V78.7z M624,61.6c0-1.2-0.2-2.3-0.7-3.4
			c-0.5-1.1-1.1-2.1-1.8-2.9c-0.8-0.8-1.7-1.5-2.7-2s-2.1-0.8-3.3-0.8c-1.2,0-2.3,0.2-3.3,0.6c-1,0.4-1.9,1-2.7,1.8
			c-0.8,0.8-1.4,1.7-1.8,2.9s-0.7,2.4-0.7,3.9c0,1.5,0.2,2.8,0.7,3.9s1,2.1,1.8,2.9c0.8,0.8,1.7,1.4,2.7,1.8c1,0.4,2.1,0.6,3.3,0.6
			c1.2,0,2.3-0.3,3.3-0.8s1.9-1.2,2.7-2c0.8-0.8,1.4-1.8,1.8-2.9C623.8,63.9,624,62.8,624,61.6z"/>
		<path class="st0" d="M647.8,78.7h-8.6V45.1h2.1l2.8,3.3c1.4-1.3,2.9-2.2,4.7-2.9c1.7-0.7,3.6-1,5.5-1c2.1,0,4,0.4,5.8,1.2
			c1.8,0.8,3.4,1.9,4.8,3.2c1.4,1.4,2.4,3,3.2,4.8c0.8,1.8,1.2,3.8,1.2,5.9v19.2h-8.6V59.5c0-0.9-0.2-1.7-0.5-2.5
			c-0.3-0.8-0.8-1.5-1.4-2.1c-0.6-0.6-1.3-1-2-1.4c-0.8-0.3-1.6-0.5-2.5-0.5c-0.9,0-1.7,0.2-2.5,0.5c-0.8,0.3-1.5,0.8-2.1,1.4
			c-0.6,0.6-1,1.3-1.4,2.1c-0.3,0.8-0.5,1.6-0.5,2.5V78.7z"/>
		<path class="st0" d="M708,74.5c0,2.4-0.5,4.6-1.4,6.7c-0.9,2.1-2.1,3.9-3.7,5.4c-1.6,1.5-3.4,2.8-5.5,3.7
			c-2.1,0.9-4.3,1.4-6.7,1.4l-4.3-0.1V83l4.2,0.1c1.3,0,2.5-0.2,3.4-0.5c0.9-0.3,1.7-0.8,2.4-1.4c0.6-0.6,1.2-1.3,1.6-2.1
			c0.4-0.8,0.7-1.6,0.9-2.5c-0.3,0.5-0.8,1-1.4,1.3c-0.6,0.3-1.3,0.6-2.1,0.8c-0.8,0.2-1.6,0.4-2.4,0.5c-0.8,0.1-1.6,0.1-2.3,0.1
			c-2.4,0-4.6-0.4-6.7-1.2c-2.1-0.8-3.9-2-5.5-3.5c-1.6-1.5-2.8-3.4-3.7-5.6c-0.9-2.2-1.4-4.7-1.4-7.4c0-2.5,0.5-4.9,1.4-7.1
			c0.9-2.2,2.1-4.1,3.7-5.7c1.6-1.6,3.4-2.8,5.5-3.7c2.1-0.9,4.3-1.4,6.7-1.4c1.1,0,2.2,0.1,3.2,0.4c1.1,0.3,2.1,0.7,3.1,1.1
			c1,0.5,2,1,2.9,1.7c0.9,0.6,1.8,1.4,2.6,2.1l3.3-4h2.1V74.5z M699.3,61.6c0-1.2-0.2-2.3-0.7-3.4c-0.5-1.1-1.1-2.1-1.8-2.9
			c-0.8-0.8-1.7-1.5-2.7-2s-2.1-0.8-3.3-0.8c-1.2,0-2.3,0.2-3.3,0.6c-1,0.4-1.9,1-2.7,1.8c-0.8,0.8-1.4,1.7-1.8,2.9
			s-0.7,2.4-0.7,3.9c0,1.4,0.2,2.7,0.7,3.8c0.4,1.1,1,2.1,1.8,2.9c0.8,0.8,1.7,1.4,2.7,1.8c1,0.4,2.1,0.6,3.3,0.6
			c1.2,0,2.3-0.3,3.3-0.8s1.9-1.2,2.7-2c0.8-0.8,1.4-1.8,1.8-2.9C699.1,63.9,699.3,62.8,699.3,61.6z"/>
	</g>
</g>
<path class="st0" d="M10.6,30.8L0.1,32.1v-7.6l11.8-5.1h10.6v59.9H10.6V30.8z"/>
<path class="st0" d="M31.1,69.7l19.8-19.6c2.5-2.4,4.2-4.5,5.3-6.4c1.1-1.9,1.6-4,1.6-6.1c0-2.2-0.7-4-2-5.1
	c-1.4-1.2-3.6-1.8-6.7-1.8H32.5v-9.3c3.4-0.6,6.6-1.1,9.5-1.4c2.9-0.3,6.1-0.5,9.5-0.5c6.6,0,11.3,1.3,14.1,4
	c2.8,2.7,4.2,6.7,4.2,12.1c0,3.8-0.8,7.3-2.3,10.3c-1.5,3-3.9,6.1-7.3,9.3L46.9,68.5h24.7v10.7H31.1V69.7z"/>
<path class="st0" d="M77.4,78.1v-9.5h18.2c3.4,0,5.8-0.4,7.3-1.2c1.5-0.8,2.2-2.2,2.2-4.3v-2.5c0-3.7-2.6-5.7-7.8-5.9L82.7,54v-9.1
	l14.1-0.8c2.5-0.1,4.4-0.6,5.7-1.4c1.3-0.8,1.9-2.1,1.9-3.8v-2c0-2.1-0.7-3.7-2.2-4.7c-1.4-1-3.8-1.5-7.1-1.5H78.7v-9.5
	c8.1-1.3,15.2-1.9,21.2-1.8c5.2,0.1,9.2,1.3,12,3.8c2.8,2.5,4.2,6.1,4.2,10.9v4.4c0,2.9-0.7,5.3-2,7.1c-1.3,1.8-3.1,3.1-5.4,3.8
	c2.4,0.7,4.3,2.2,5.9,4.4c1.6,2.2,2.4,5,2.4,8.3v3c0,4.7-1.5,8.3-4.4,10.8c-3,2.5-7.1,3.8-12.5,3.8C91.7,79.8,84.2,79.2,77.4,78.1z"
	/>
<path class="st0" d="M715.6,66.8c-0.1-7-0.2-19.9-0.2-19.9s0-1.1,2.8-2.5c17.5-9.4,35.1-18.8,52.6-28.2c0.4-0.2,0.8-0.5,1-1.3
	c-6.2,1.8-12.3,3.7-18.5,5.5c-9.8,3-19.7,6-29.5,8.9c-4.7,1.4-9.4,2.9-14.1,4.2c-1,0.3-2.7-0.1-3.3-0.8c-7-7.7-13.9-15.6-20.8-23.4
	c-0.2-0.2-0.3-0.6-0.7-1.5c38.1-2.5,76-5,115.1-7.5c-15.8,28.6-31.2,56.5-46.9,85c-8.1-8.5-15.9-16.7-24.1-25.2
	C724.7,62.2,720.5,64.3,715.6,66.8z"/>
</svg>
